<svg width="193" height="57" viewBox="0 0 193 57" fill="none" xmlns="http://www.w3.org/2000/svg">
<path d="M15.7803 22.7559C15.7803 22.1699 15.6826 21.6475 15.4873 21.1885C15.292 20.7295 14.9697 20.3193 14.5205 19.958C14.0811 19.5869 13.4854 19.2451 12.7334 18.9326C11.9912 18.6104 11.0635 18.293 9.9502 17.9805C8.88574 17.6777 7.92383 17.3457 7.06445 16.9844C6.20508 16.623 5.46777 16.208 4.85254 15.7393C4.24707 15.2705 3.7832 14.7236 3.46094 14.0986C3.13867 13.4639 2.97754 12.7266 2.97754 11.8867C2.97754 11.0664 3.15332 10.3193 3.50488 9.64551C3.85645 8.97168 4.34961 8.39062 4.98438 7.90234C5.62891 7.41406 6.38574 7.03809 7.25488 6.77441C8.13379 6.51074 9.0957 6.37891 10.1406 6.37891C11.6348 6.37891 12.9238 6.66211 14.0078 7.22852C15.1016 7.79492 15.9463 8.56152 16.542 9.52832C17.1475 10.4854 17.4502 11.5596 17.4502 12.751H15.6484C15.6484 11.8232 15.4287 10.998 14.9893 10.2754C14.5596 9.54297 13.9346 8.97168 13.1143 8.56152C12.3037 8.1416 11.3125 7.93164 10.1406 7.93164C8.96875 7.93164 7.98242 8.1123 7.18164 8.47363C6.39062 8.8252 5.79004 9.29883 5.37988 9.89453C4.97949 10.4805 4.7793 11.1348 4.7793 11.8574C4.7793 12.3652 4.87695 12.834 5.07227 13.2637C5.26758 13.6836 5.58496 14.0791 6.02441 14.4502C6.47363 14.8115 7.06445 15.1533 7.79688 15.4756C8.5293 15.7881 9.43262 16.0859 10.5068 16.3691C11.6396 16.6816 12.6455 17.0283 13.5244 17.4092C14.4033 17.79 15.1455 18.2295 15.751 18.7275C16.3564 19.2158 16.8154 19.7871 17.1279 20.4414C17.4404 21.0957 17.5967 21.8574 17.5967 22.7266C17.5967 23.5957 17.4111 24.377 17.04 25.0703C16.6787 25.7539 16.166 26.335 15.502 26.8135C14.8477 27.292 14.0713 27.6582 13.1729 27.9121C12.2842 28.166 11.3125 28.293 10.2578 28.293C9.31055 28.293 8.36816 28.1709 7.43066 27.9268C6.49316 27.6826 5.63379 27.3066 4.85254 26.7988C4.08105 26.2812 3.46094 25.6172 2.99219 24.8066C2.5332 23.9961 2.30371 23.0293 2.30371 21.9062H4.09082C4.09082 22.8047 4.27148 23.5615 4.63281 24.1768C4.99414 24.792 5.47266 25.29 6.06836 25.6709C6.67383 26.0518 7.33789 26.3301 8.06055 26.5059C8.79297 26.6719 9.52539 26.7549 10.2578 26.7549C11.3809 26.7549 12.3525 26.5889 13.1729 26.2568C14.0029 25.9248 14.6426 25.4609 15.0918 24.8652C15.5508 24.2598 15.7803 23.5566 15.7803 22.7559ZM27.0742 12.1504V13.5859H19.1348V12.1504H27.0742ZM22.0498 8.07812H23.793V24.1475C23.793 24.8799 23.8906 25.4316 24.0859 25.8027C24.2812 26.1738 24.5352 26.4229 24.8477 26.5498C25.1602 26.6768 25.4971 26.7402 25.8584 26.7402C26.1221 26.7402 26.376 26.7256 26.6201 26.6963C26.8643 26.6572 27.084 26.6182 27.2793 26.5791L27.3525 28.0586C27.1377 28.127 26.8594 28.1807 26.5176 28.2197C26.1758 28.2686 25.834 28.293 25.4922 28.293C24.8184 28.293 24.2227 28.1709 23.7051 27.9268C23.1875 27.6729 22.7822 27.2432 22.4893 26.6377C22.1963 26.0225 22.0498 25.1875 22.0498 24.1328V8.07812ZM32.4941 14.7725V28H30.751V12.1504H32.4502L32.4941 14.7725ZM38.1045 12.0332L38.0605 13.6445C37.8652 13.6152 37.6748 13.5908 37.4893 13.5713C37.3037 13.5518 37.1035 13.542 36.8887 13.542C36.127 13.542 35.458 13.6836 34.8818 13.9668C34.3154 14.2402 33.8369 14.626 33.4463 15.124C33.0557 15.6123 32.7578 16.1885 32.5527 16.8525C32.3477 17.5068 32.2305 18.21 32.2012 18.9619L31.5566 19.2109C31.5566 18.1758 31.6641 17.2139 31.8789 16.3252C32.0938 15.4365 32.4209 14.6602 32.8604 13.9961C33.3096 13.3223 33.8711 12.7998 34.5449 12.4287C35.2285 12.0479 36.0293 11.8574 36.9473 11.8574C37.1719 11.8574 37.3916 11.877 37.6064 11.916C37.8311 11.9453 37.9971 11.9844 38.1045 12.0332ZM46.6885 28.293C45.6533 28.293 44.7012 28.1025 43.832 27.7217C42.9727 27.3408 42.2207 26.8037 41.5762 26.1104C40.9414 25.417 40.4482 24.5967 40.0967 23.6494C39.7549 22.6924 39.584 21.6475 39.584 20.5146V19.8848C39.584 18.6641 39.7646 17.5605 40.126 16.5742C40.4873 15.5879 40.9854 14.7432 41.6201 14.04C42.2549 13.3369 42.9775 12.7998 43.7881 12.4287C44.6084 12.0479 45.4678 11.8574 46.3662 11.8574C47.3721 11.8574 48.2656 12.0381 49.0469 12.3994C49.8281 12.751 50.4824 13.2539 51.0098 13.9082C51.5469 14.5527 51.9521 15.3193 52.2256 16.208C52.499 17.0869 52.6357 18.0586 52.6357 19.123V20.1924H40.6387V18.6982H50.8926V18.4932C50.873 17.6045 50.6924 16.7744 50.3506 16.0029C50.0186 15.2217 49.5205 14.5869 48.8564 14.0986C48.1924 13.6104 47.3623 13.3662 46.3662 13.3662C45.624 13.3662 44.9404 13.5225 44.3154 13.835C43.7002 14.1475 43.168 14.5967 42.7188 15.1826C42.2793 15.7588 41.9375 16.4473 41.6934 17.248C41.459 18.0391 41.3418 18.918 41.3418 19.8848V20.5146C41.3418 21.3936 41.4688 22.2139 41.7227 22.9756C41.9863 23.7275 42.3574 24.3916 42.8359 24.9678C43.3242 25.5439 43.9004 25.9932 44.5645 26.3154C45.2285 26.6377 45.9609 26.7988 46.7617 26.7988C47.6992 26.7988 48.5293 26.6279 49.252 26.2861C49.9746 25.9346 50.624 25.3828 51.2002 24.6309L52.2988 25.4805C51.957 25.9883 51.5273 26.457 51.0098 26.8867C50.502 27.3164 49.8916 27.6582 49.1787 27.9121C48.4658 28.166 47.6357 28.293 46.6885 28.293ZM65.7314 25.1582V16.9844C65.7314 16.2324 65.5752 15.583 65.2627 15.0361C64.9502 14.4893 64.4912 14.0693 63.8857 13.7764C63.2803 13.4834 62.5332 13.3369 61.6445 13.3369C60.8242 13.3369 60.0918 13.4834 59.4473 13.7764C58.8125 14.0596 58.3096 14.4453 57.9385 14.9336C57.5771 15.4121 57.3965 15.9443 57.3965 16.5303L55.6387 16.5156C55.6387 15.9199 55.7852 15.3438 56.0781 14.7871C56.3711 14.2305 56.7861 13.7324 57.3232 13.293C57.8604 12.8535 58.5 12.5068 59.2422 12.2529C59.9941 11.9893 60.8193 11.8574 61.7178 11.8574C62.8506 11.8574 63.8467 12.0479 64.7061 12.4287C65.5752 12.8096 66.2539 13.3809 66.7422 14.1426C67.2305 14.9043 67.4746 15.8613 67.4746 17.0137V24.6748C67.4746 25.2217 67.5137 25.7881 67.5918 26.374C67.6797 26.96 67.8018 27.4434 67.958 27.8242V28H66.0977C65.9805 27.6484 65.8877 27.209 65.8193 26.6816C65.7607 26.1445 65.7314 25.6367 65.7314 25.1582ZM66.1416 18.7715L66.1709 20.1191H62.7285C61.8301 20.1191 61.0244 20.2021 60.3115 20.3682C59.6084 20.5244 59.0127 20.7588 58.5244 21.0713C58.0361 21.374 57.6602 21.7402 57.3965 22.1699C57.1426 22.5996 57.0156 23.0879 57.0156 23.6348C57.0156 24.2012 57.1572 24.7188 57.4404 25.1875C57.7334 25.6562 58.1436 26.0322 58.6709 26.3154C59.208 26.5889 59.8428 26.7256 60.5752 26.7256C61.5518 26.7256 62.4111 26.5449 63.1533 26.1836C63.9053 25.8223 64.5254 25.3486 65.0137 24.7627C65.502 24.1768 65.8291 23.5371 65.9951 22.8438L66.7568 23.8545C66.6299 24.3428 66.3955 24.8457 66.0537 25.3633C65.7217 25.8711 65.2871 26.3496 64.75 26.7988C64.2129 27.2383 63.5781 27.5996 62.8457 27.8828C62.123 28.1562 61.3027 28.293 60.3848 28.293C59.3496 28.293 58.4463 28.0977 57.6748 27.707C56.9131 27.3164 56.3174 26.7842 55.8877 26.1104C55.4678 25.4268 55.2578 24.6553 55.2578 23.7959C55.2578 23.0146 55.4238 22.3164 55.7559 21.7012C56.0879 21.0762 56.5664 20.5488 57.1914 20.1191C57.8262 19.6797 58.5879 19.3477 59.4766 19.123C60.375 18.8887 61.3809 18.7715 62.4941 18.7715H66.1416ZM73.9199 5.5V28H72.1768V5.5H73.9199ZM83.8662 12.1504L76.4541 19.5039L73.3047 22.5508L73.041 20.8369L75.5752 18.0977L81.6543 12.1504H83.8662ZM82.3428 28L75.7217 19.7676L76.6885 18.2588L84.4521 28H82.3428ZM94.4424 6.67188V28H92.6553V6.67188H94.4424ZM101.752 6.67188V8.22461H85.3604V6.67188H101.752ZM105.443 14.7725V28H103.7V12.1504H105.399L105.443 14.7725ZM111.054 12.0332L111.01 13.6445C110.814 13.6152 110.624 13.5908 110.438 13.5713C110.253 13.5518 110.053 13.542 109.838 13.542C109.076 13.542 108.407 13.6836 107.831 13.9668C107.265 14.2402 106.786 14.626 106.396 15.124C106.005 15.6123 105.707 16.1885 105.502 16.8525C105.297 17.5068 105.18 18.21 105.15 18.9619L104.506 19.2109C104.506 18.1758 104.613 17.2139 104.828 16.3252C105.043 15.4365 105.37 14.6602 105.81 13.9961C106.259 13.3223 106.82 12.7998 107.494 12.4287C108.178 12.0479 108.979 11.8574 109.896 11.8574C110.121 11.8574 110.341 11.877 110.556 11.916C110.78 11.9453 110.946 11.9844 111.054 12.0332ZM122.86 25.1582V16.9844C122.86 16.2324 122.704 15.583 122.392 15.0361C122.079 14.4893 121.62 14.0693 121.015 13.7764C120.409 13.4834 119.662 13.3369 118.773 13.3369C117.953 13.3369 117.221 13.4834 116.576 13.7764C115.941 14.0596 115.438 14.4453 115.067 14.9336C114.706 15.4121 114.525 15.9443 114.525 16.5303L112.768 16.5156C112.768 15.9199 112.914 15.3438 113.207 14.7871C113.5 14.2305 113.915 13.7324 114.452 13.293C114.989 12.8535 115.629 12.5068 116.371 12.2529C117.123 11.9893 117.948 11.8574 118.847 11.8574C119.979 11.8574 120.976 12.0479 121.835 12.4287C122.704 12.8096 123.383 13.3809 123.871 14.1426C124.359 14.9043 124.604 15.8613 124.604 17.0137V24.6748C124.604 25.2217 124.643 25.7881 124.721 26.374C124.809 26.96 124.931 27.4434 125.087 27.8242V28H123.227C123.109 27.6484 123.017 27.209 122.948 26.6816C122.89 26.1445 122.86 25.6367 122.86 25.1582ZM123.271 18.7715L123.3 20.1191H119.857C118.959 20.1191 118.153 20.2021 117.44 20.3682C116.737 20.5244 116.142 20.7588 115.653 21.0713C115.165 21.374 114.789 21.7402 114.525 22.1699C114.271 22.5996 114.145 23.0879 114.145 23.6348C114.145 24.2012 114.286 24.7188 114.569 25.1875C114.862 25.6562 115.272 26.0322 115.8 26.3154C116.337 26.5889 116.972 26.7256 117.704 26.7256C118.681 26.7256 119.54 26.5449 120.282 26.1836C121.034 25.8223 121.654 25.3486 122.143 24.7627C122.631 24.1768 122.958 23.5371 123.124 22.8438L123.886 23.8545C123.759 24.3428 123.524 24.8457 123.183 25.3633C122.851 25.8711 122.416 26.3496 121.879 26.7988C121.342 27.2383 120.707 27.5996 119.975 27.8828C119.252 28.1562 118.432 28.293 117.514 28.293C116.479 28.293 115.575 28.0977 114.804 27.707C114.042 27.3164 113.446 26.7842 113.017 26.1104C112.597 25.4268 112.387 24.6553 112.387 23.7959C112.387 23.0146 112.553 22.3164 112.885 21.7012C113.217 21.0762 113.695 20.5488 114.32 20.1191C114.955 19.6797 115.717 19.3477 116.605 19.123C117.504 18.8887 118.51 18.7715 119.623 18.7715H123.271ZM135.15 26.7842C135.893 26.7842 136.586 26.6475 137.23 26.374C137.885 26.0908 138.422 25.6758 138.842 25.1289C139.271 24.5723 139.516 23.8936 139.574 23.0928H141.244C141.195 24.0986 140.888 24.9971 140.321 25.7881C139.765 26.5693 139.032 27.1846 138.124 27.6338C137.226 28.0732 136.234 28.293 135.15 28.293C134.047 28.293 133.07 28.0928 132.221 27.6924C131.381 27.292 130.678 26.7354 130.111 26.0225C129.545 25.2998 129.115 24.46 128.822 23.5029C128.539 22.5361 128.397 21.4961 128.397 20.3828V19.7676C128.397 18.6543 128.539 17.6191 128.822 16.6621C129.115 15.6953 129.545 14.8555 130.111 14.1426C130.678 13.4199 131.381 12.8584 132.221 12.458C133.061 12.0576 134.032 11.8574 135.136 11.8574C136.269 11.8574 137.284 12.0869 138.183 12.5459C139.091 13.0049 139.813 13.6543 140.351 14.4941C140.897 15.334 141.195 16.3301 141.244 17.4824H139.574C139.525 16.6328 139.301 15.9004 138.9 15.2852C138.5 14.6699 137.973 14.1963 137.318 13.8643C136.664 13.5322 135.937 13.3662 135.136 13.3662C134.237 13.3662 133.471 13.542 132.836 13.8936C132.201 14.2354 131.684 14.709 131.283 15.3145C130.893 15.9102 130.604 16.5938 130.419 17.3652C130.233 18.127 130.141 18.9277 130.141 19.7676V20.3828C130.141 21.2324 130.229 22.043 130.404 22.8145C130.59 23.5762 130.878 24.2549 131.269 24.8506C131.669 25.4463 132.187 25.9199 132.821 26.2715C133.466 26.6133 134.242 26.7842 135.15 26.7842ZM146.518 5.5V28H144.774V5.5H146.518ZM156.464 12.1504L149.052 19.5039L145.902 22.5508L145.639 20.8369L148.173 18.0977L154.252 12.1504H156.464ZM154.94 28L148.319 19.7676L149.286 18.2588L157.05 28H154.94ZM165.312 28.293C164.276 28.293 163.324 28.1025 162.455 27.7217C161.596 27.3408 160.844 26.8037 160.199 26.1104C159.564 25.417 159.071 24.5967 158.72 23.6494C158.378 22.6924 158.207 21.6475 158.207 20.5146V19.8848C158.207 18.6641 158.388 17.5605 158.749 16.5742C159.11 15.5879 159.608 14.7432 160.243 14.04C160.878 13.3369 161.601 12.7998 162.411 12.4287C163.231 12.0479 164.091 11.8574 164.989 11.8574C165.995 11.8574 166.889 12.0381 167.67 12.3994C168.451 12.751 169.105 13.2539 169.633 13.9082C170.17 14.5527 170.575 15.3193 170.849 16.208C171.122 17.0869 171.259 18.0586 171.259 19.123V20.1924H159.262V18.6982H169.516V18.4932C169.496 17.6045 169.315 16.7744 168.974 16.0029C168.642 15.2217 168.144 14.5869 167.479 14.0986C166.815 13.6104 165.985 13.3662 164.989 13.3662C164.247 13.3662 163.563 13.5225 162.938 13.835C162.323 14.1475 161.791 14.5967 161.342 15.1826C160.902 15.7588 160.561 16.4473 160.316 17.248C160.082 18.0391 159.965 18.918 159.965 19.8848V20.5146C159.965 21.3936 160.092 22.2139 160.346 22.9756C160.609 23.7275 160.98 24.3916 161.459 24.9678C161.947 25.5439 162.523 25.9932 163.188 26.3154C163.852 26.6377 164.584 26.7988 165.385 26.7988C166.322 26.7988 167.152 26.6279 167.875 26.2861C168.598 25.9346 169.247 25.3828 169.823 24.6309L170.922 25.4805C170.58 25.9883 170.15 26.457 169.633 26.8867C169.125 27.3164 168.515 27.6582 167.802 27.9121C167.089 28.166 166.259 28.293 165.312 28.293ZM176.459 14.7725V28H174.716V12.1504H176.415L176.459 14.7725ZM182.069 12.0332L182.025 13.6445C181.83 13.6152 181.64 13.5908 181.454 13.5713C181.269 13.5518 181.068 13.542 180.854 13.542C180.092 13.542 179.423 13.6836 178.847 13.9668C178.28 14.2402 177.802 14.626 177.411 15.124C177.021 15.6123 176.723 16.1885 176.518 16.8525C176.312 17.5068 176.195 18.21 176.166 18.9619L175.521 19.2109C175.521 18.1758 175.629 17.2139 175.844 16.3252C176.059 15.4365 176.386 14.6602 176.825 13.9961C177.274 13.3223 177.836 12.7998 178.51 12.4287C179.193 12.0479 179.994 11.8574 180.912 11.8574C181.137 11.8574 181.356 11.877 181.571 11.916C181.796 11.9453 181.962 11.9844 182.069 12.0332Z" fill="black"/>
<path d="M1 44C0.723858 44 0.5 44.2239 0.5 44.5C0.5 44.7761 0.723858 45 1 45V44ZM1 45H179V44H1V45Z" fill="black"/>
<path d="M178.5 45L191 56H13L1 45" stroke="black" stroke-linecap="round"/>
<path d="M191 56V40L179 44.8485" stroke="black"/>
<path d="M13 56V40L1 44.5" stroke="black"/>
<path d="M13 40H191" stroke="black"/>
</svg>
